<?xml version="1.0" standalone="no"?>
<!DOCTYPE svg PUBLIC "-//W3C//DTD SVG 20010904//EN" "http://www.w3.org/TR/2001/REC-SVG-20010904/DTD/svg10.dtd">
<svg version="1.0" xmlns="http://www.w3.org/2000/svg"
    width="222.000000pt" height="222.000000pt" viewBox="0 0 222.000000 222.000000"
    preserveAspectRatio="xMidYMid meet">

    <style>
        path {
            fill: #0030A9;
        }
        
        @media ( prefers-color-scheme: dark ) {
            path { fill: #FFFFFF; }
        }
    </style>

    <g transform="translate(0.000000,222.000000) scale(0.100000,-0.100000)"
        fill="#000000" stroke="none">

        <path
            d="M1066 2194 c-14 -13 -16 -66 -16 -430 0 -250 4 -423 10 -434 14 -26
57 -34 86 -15 l24 15 0 425 c0 465 1 455 -60 455 -16 0 -36 -7 -44 -16z" />
        <path
            d="M404 1658 c-127 -137 -211 -298 -250 -482 -20 -96 -20 -290 1 -390
42 -201 137 -370 290 -514 139 -131 324 -223 507 -252 109 -18 311 -8 413 20
273 74 506 271 630 532 109 230 119 523 24 768 -36 94 -111 217 -179 293 -57
63 -93 74 -130 37 -30 -30 -25 -54 24 -109 301 -339 300 -833 -2 -1153 -169
-178 -374 -269 -612 -270 -134 0 -224 17 -335 63 -531 221 -690 888 -319 1334
35 43 64 85 64 94 0 9 -7 27 -16 39 -24 34 -73 30 -110 -10z" />
    </g>
</svg>